<?xml version="1.0" encoding="UTF-8"?>
<svg width="256mm" height="256mm" version="1.1" viewBox="0 0 256 256" xmlns="http://www.w3.org/2000/svg">
 <circle cx="128" cy="128" r="128" fill="#ff586e" stroke-width="0"/>
 <path d="m92.286 68.082c-4.4907-0.0506-9.0004 1.6189-12.48 5.0211l-5.6038 5.4786c-6.9595 6.8044-7.0833 17.885-0.27886 24.845l23.691 24.231-24.232 23.693c-6.9594 6.8044-7.0833 17.885-0.27886 24.845l5.4769 5.6022c6.8045 6.9595 17.885 7.0849 24.845 0.28047l24.232-23.693 23.693 24.232c6.8045 6.9595 17.884 7.085 24.843 0.28048l5.6039-5.4786c6.9595-6.8044 7.085-17.886 0.28047-24.845l-23.693-24.232 24.232-23.691c6.9595-6.8044 7.0849-17.886 0.28047-24.845l-5.4786-5.6022c-6.8045-6.9595-17.886-7.0849-24.845-0.28054l-24.232 23.691-23.691-24.231c-3.4022-3.4798-7.8742-5.251-12.365-5.3016z" fill="#fff" stroke-width="0"/>
</svg>
