<?xml version="1.0" encoding="UTF-8"?>
<svg width="256mm" height="256mm" version="1.1" viewBox="0 0 256 256" xmlns="http://www.w3.org/2000/svg">
 <circle cx="128" cy="128" r="128" fill="#0acf97" stroke-width="0"/>
 <path d="m176.55 66.7c-4.3291 0.48511-8.472 2.6286-11.418 6.3177l-51.656 64.697-26.497-21.156c-7.378-5.891-18.061-4.6941-23.952 2.6839l-4.7418 5.9394c-5.8909 7.378-4.6943 18.06 2.6837 23.951l39.814 31.79 5.9397 4.7433c0.23056 0.18392 0.46449 0.36074 0.70126 0.53102 0.12356 0.0887 0.24958 0.171 0.37469 0.25629 0.11471 0.078 0.22765 0.15964 0.34377 0.23453 2.7e-4 2e-4 8e-4 -5.3e-4 8e-4 -1.2e-4 0.72708 0.46927 1.4785 0.87834 2.2481 1.2249 5.3e-4 1.6e-4 7.9e-4 -2.6e-4 7.9e-4 -1.3e-4 2.8229 1.2708 5.8864 1.7212 8.8622 1.3877 1.0823-0.1211 2.1535-0.34668 3.1968-0.67345 3.1297-0.98052 6.0133-2.8776 8.2224-5.6444l4.7417-5.9394 62.291-78.015c5.8909-7.378 4.6925-18.061-2.6856-23.952l-5.9387-4.7419c-3.689-2.9455-8.204-4.1191-12.533-3.6339z" fill="#fff" stroke-width="0"/>
</svg>
